<?xml version="1.0" encoding="UTF-8" standalone="no"?>
<svg
   xmlns:dc="http://purl.org/dc/elements/1.1/"
   xmlns:cc="http://creativecommons.org/ns#"
   xmlns:rdf="http://www.w3.org/1999/02/22-rdf-syntax-ns#"
   xmlns:svg="http://www.w3.org/2000/svg"
   xmlns="http://www.w3.org/2000/svg"
   viewBox="0 0 426.66666 217.55067"
   height="217.55067"
   width="426.66666"
   xml:space="preserve"
   id="svg2"
   version="1.1"><metadata
     id="metadata8"><rdf:RDF><cc:Work
         rdf:about=""><dc:format>image/svg+xml</dc:format><dc:type
           rdf:resource="http://purl.org/dc/dcmitype/StillImage" /></cc:Work></rdf:RDF></metadata><defs
     id="defs6"><clipPath
       id="clipPath18"
       clipPathUnits="userSpaceOnUse"><path
         id="path16"
         d="M 0,163.163 H 320 V 0 H 0 Z" /></clipPath></defs><g
     transform="matrix(1.3333333,0,0,-1.3333333,0,217.55067)"
     id="g10"><g
       id="g12"><g
         clip-path="url(#clipPath18)"
         id="g14"><g
           transform="translate(168.7477,125.4712)"
           id="g20"><path
             id="path22"
             style="fill:#3958a7;fill-opacity:1;fill-rule:nonzero;stroke:none"
             d="m 0,0 c -0.125,-0.084 -0.251,-0.167 -0.387,-0.251 0.126,0.073 0.251,0.157 0.377,0.23 C 0.021,-0.01 0.031,0.01 0.063,0.042 0.042,0.031 0.021,0.01 0,0 M 0.502,0.345 0.282,0.188 C 0.356,0.23 0.418,0.282 0.492,0.324 0.523,0.345 0.554,0.366 0.586,0.397 0.554,0.376 0.533,0.366 0.502,0.345 M -18.081,30.17 h 0.031 v 0.01 z" /></g><g
           transform="translate(159.817,125.0006)"
           id="g24"><path
             id="path26"
             style="fill:#3958a7;fill-opacity:1;fill-rule:nonzero;stroke:none"
             d="M 0,0 C 0.125,0.073 0.251,0.146 0.366,0.22 L 0.293,0.167 Z" /></g><g
           transform="translate(124.1487,155.6516)"
           id="g28"><path
             id="path30"
             style="fill:#3958a7;fill-opacity:1;fill-rule:nonzero;stroke:none"
             d="M 0,0 V -0.01 H -0.031 Z" /></g><g
           transform="translate(118.9771,110.6129)"
           id="g32"><path
             id="path34"
             style="fill:#3958a7;fill-opacity:1;fill-rule:nonzero;stroke:none"
             d="M 0,0 7.98,21.47 15.927,0 Z M -3.977,52.299 -35.95,-31.549 h 24.424 l 4.62,12.373 h 29.755 l 4.612,-12.373 H 51.775 L 19.803,52.299 Z" /></g><g
           transform="translate(248.5664,162.9124)"
           id="g36"><path
             id="path38"
             style="fill:#3958a7;fill-opacity:1;fill-rule:nonzero;stroke:none"
             d="m 0,0 c 5.729,-5.797 9.664,-13.371 10.908,-21.808 h 13.168 v -62.04 h 23.891 v 62.04 H 71.434 V 0 Z" /></g><g
           transform="translate(220.868,128.6385)"
           id="g40"><path
             id="path42"
             style="fill:#3958a7;fill-opacity:1;fill-rule:nonzero;stroke:none"
             d="M 0,0 H -16.968 V 12.787 H 0 c 3.36,0 5.67,-2.623 5.67,-6.398 C 5.67,2.615 3.36,0 0,0 m 13.422,-18.855 c 9.529,4.274 15.834,13.82 15.834,25.667 0,1.972 -0.17,3.851 -0.5,5.654 -0.33,1.946 -0.854,3.791 -1.54,5.526 -3.927,9.943 -13.219,16.282 -25.219,16.282 h -42.872 v -83.848 h 23.907 v 28.087 h 5.755 L -4.511,-32.353 6.085,-49.574 H 32.81 l -13.87,21.986 z" /></g><g
           transform="translate(88.6891,114.582)"
           id="g44"><path
             id="path46"
             style="fill:#3958a7;fill-opacity:1;fill-rule:nonzero;stroke:none"
             d="m 0,0 c 3.3,0 5.67,2.395 5.67,5.704 0,3.3 -2.37,5.661 -5.67,5.661 -3.309,0 -5.704,-2.361 -5.704,-5.661 C -5.704,2.395 -3.309,0 0,0" /></g><g
           transform="translate(259.3902,125.9473)"
           id="g48"><path
             id="path50"
             style="fill:#3958a7;fill-opacity:1;fill-rule:nonzero;stroke:none"
             d="m 0,0 c -0.212,0 -0.406,-0.008 -0.618,-0.025 h -0.008 c -2.988,-0.28 -5.086,-2.548 -5.086,-5.637 0,-1.531 0.507,-2.851 1.396,-3.842 v -0.017 c 1.007,-1.159 2.539,-1.844 4.316,-1.844 3.309,0 5.662,2.395 5.662,5.703 C 5.662,-2.361 3.309,0 0,0" /></g><g
           transform="translate(308.9308,125.6395)"
           id="g52"><path
             id="path54"
             style="fill:#3958a7;fill-opacity:1;fill-rule:nonzero;stroke:none"
             d="m 0,0 c -3.309,0 -5.704,-2.361 -5.704,-5.662 0,-3.308 2.395,-5.703 5.704,-5.703 3.309,0 5.678,2.395 5.678,5.703 C 5.678,-2.361 3.309,0 0,0" /></g><g
           transform="translate(167.9253,125.9473)"
           id="g56"><path
             id="path58"
             style="fill:#3958a7;fill-opacity:1;fill-rule:nonzero;stroke:none"
             d="m 0,0 c -3.309,0 -5.712,-2.361 -5.712,-5.662 0,-3.308 2.403,-5.703 5.712,-5.703 3.309,0 5.67,2.395 5.67,5.703 C 5.67,-2.361 3.309,0 0,0" /></g><g
           transform="translate(19.2096,110.8707)"
           id="g60"><path
             id="path62"
             style="fill:#3958a7;fill-opacity:1;fill-rule:nonzero;stroke:none"
             d="m 0,0 c 0.114,-0.245 0.25,-0.512 0.373,-0.756 0.061,-0.105 0.113,-0.219 0.166,-0.333 0.061,-0.105 0.113,-0.218 0.166,-0.323 0.297,-0.56 0.612,-1.11 0.944,-1.661 0.026,-0.053 0.052,-0.105 0.087,-0.149 0.42,-0.725 0.866,-1.425 1.347,-2.107 0,0 0,-0.008 0.008,-0.008 0,-0.009 0.009,-0.018 0.018,-0.027 1.004,-1.449 2.139,-2.86 3.313,-4.126 0.018,-0.008 0.026,-0.026 0.044,-0.043 0.893,-0.956 1.862,-1.873 2.859,-2.702 0.078,-0.061 0.157,-0.14 0.236,-0.201 1.241,-1.005 2.517,-1.871 3.811,-2.587 1.161,-0.631 2.344,-1.171 3.576,-1.583 0.148,-0.052 0.297,-0.087 0.445,-0.131 0.219,-0.07 0.438,-0.14 0.647,-0.192 0.184,-0.053 0.368,-0.096 0.542,-0.14 0.349,-0.077 0.681,-0.141 1.032,-0.21 0.044,-0.009 0.096,-0.017 0.14,-0.026 0.192,-0.026 0.384,-0.053 0.568,-0.07 0.288,-0.044 0.577,-0.07 0.865,-0.087 0.21,-0.018 0.42,-0.035 0.63,-0.044 0.36,0.002 0.77,-0.009 1.128,0.017 0.096,0 0.192,0.009 0.288,0.018 0.324,0.017 0.647,0.052 0.962,0.087 h 0.008 c 0.009,-0.009 0.027,-0.009 0.035,0 0.018,0 0.035,0.009 0.053,0.018 0.211,0.008 0.416,0.056 0.621,0.105 0.087,0.017 0.174,0.026 0.271,0.052 h 0.008 c 0.018,-0.009 0.027,-0.009 0.044,0 0.227,0.053 0.455,0.114 0.691,0.175 0.613,0.139 1.212,0.387 1.8,0.621 0.175,0.07 0.333,0.148 0.49,0.218 0.079,0.044 0.149,0.079 0.21,0.114 0.087,0.035 0.175,0.096 0.262,0.14 0.149,0.078 0.297,0.148 0.446,0.227 0,0.009 0.009,0.009 0.017,0.009 0.028,0.033 0.036,10e-4 0.062,0.043 0.008,0 0.008,0 0.026,0.009 0.07,0.044 0.148,0.088 0.218,0.131 l 0.062,0.044 c 0.113,0.07 0.218,0.14 0.323,0.21 0.035,0.026 0.07,0.039 0.105,0.07 0.044,0.026 0.087,0.061 0.131,0.087 l 0.184,0.131 c 0.048,0.031 0.091,0.057 0.14,0.088 0.035,0.026 0.061,0.043 0.096,0.07 6.026,4.369 7.978,12.157 7.675,19.652 -0.427,11.285 -6.642,23.922 -16.26,30.011 -0.017,0.009 -0.035,0.017 -0.052,0.035 C 21.214,35.38 13.408,40.482 5.653,36.493 5.487,36.406 5.321,36.31 5.155,36.222 5.111,36.196 5.058,36.17 5.015,36.152 c -0.009,0 -0.009,0 -0.018,-0.008 C 4.954,36.126 4.91,36.109 4.875,36.082 4.761,36.021 4.656,35.96 4.551,35.881 4.333,35.759 4.123,35.619 3.913,35.47 3.852,35.435 3.8,35.4 3.738,35.357 3.712,35.339 3.695,35.331 3.668,35.313 3.651,35.296 3.633,35.287 3.607,35.269 3.275,35.033 2.96,34.789 2.646,34.5 2.497,34.386 2.348,34.255 2.2,34.107 2.174,34.089 2.139,34.054 2.104,34.028 2.077,34.002 2.051,33.976 2.016,33.949 V 33.941 C 0.993,32.979 0.067,31.825 -0.746,30.479 -0.79,30.4 -0.825,30.313 -0.877,30.234 -1.16,29.75 -1.426,29.267 -1.655,28.757 -1.708,28.652 -1.752,28.555 -1.795,28.459 -1.935,28.171 -2.049,27.891 -2.18,27.603 -2.285,27.332 -2.381,27.052 -2.486,26.772 -2.521,26.667 -2.565,26.571 -2.6,26.475 -2.854,25.724 -3.065,24.961 -3.255,24.193 -3.29,24.062 -3.325,23.931 -3.351,23.809 -3.378,23.73 -3.395,23.66 -3.404,23.59 -4.281,19.519 -4.257,15.109 -3.491,10.862 c 0.008,-0.088 0.026,-0.159 0.035,-0.247 l 3.228,-0.111 v 0.008 c -0.88,5.044 -0.635,10.409 1.617,14.92 0.127,0.237 0.245,0.465 0.363,0.694 0.144,0.254 0.288,0.491 0.441,0.744 1.1,1.727 2.462,3.047 3.994,3.961 0.085,0.059 0.178,0.102 0.271,0.161 0.093,0.051 0.194,0.11 0.287,0.152 10.063,4.866 20.176,-5.382 23.781,-14.412 v -0.008 c 0.203,-0.466 0.397,-0.923 0.558,-1.397 2.532,-7.014 3.093,-15.63 -0.922,-21.986 -0.009,-0.025 -0.026,-0.051 -0.051,-0.076 -0.059,-0.093 -0.119,-0.186 -0.186,-0.279 -0.034,-0.034 -0.059,-0.085 -0.093,-0.119 -0.093,-0.152 -0.203,-0.296 -0.322,-0.44 -0.008,-0.025 -0.025,-0.059 -0.051,-0.067 -0.837,-1.117 -1.946,-2.125 -3.089,-2.844 -0.177,-0.127 -0.355,-0.228 -0.541,-0.313 -0.127,-0.068 -0.254,-0.144 -0.381,-0.186 C 16.181,-15.367 6.771,-6.71 2.819,1.415 l 0.101,0.05 0.11,0.06 2.979,1.464 c 3.064,-6.026 10.587,-12.28 17.188,-8.048 0.482,0.33 0.948,0.719 1.371,1.176 0.448,0.457 0.863,0.99 1.21,1.557 0.152,0.237 0.288,0.474 0.415,0.711 0.008,0.017 0.008,0.025 0.025,0.042 0.026,0.034 0.034,0.06 0.042,0.093 0.085,0.161 0.17,0.33 0.229,0.5 0.051,0.067 0.085,0.144 0.11,0.211 0.093,0.212 0.186,0.423 0.271,0.652 0,0.034 0.025,0.068 0.034,0.118 2.589,7.685 -0.483,17.205 -6.474,22.638 -3.106,2.877 -7.684,4.578 -11.552,2.734 C 8.726,25.305 8.565,25.22 8.43,25.136 8.32,25.076 8.21,25.017 8.108,24.949 7.583,24.619 7.076,24.23 6.61,23.765 6.449,23.612 6.288,23.443 6.153,23.282 5.933,22.995 5.688,22.715 5.476,22.402 5.451,22.351 5.425,22.326 5.391,22.284 3.428,19.288 2.92,15.471 3.293,11.815 3.352,11.341 3.411,10.859 3.496,10.385 v -0.017 l 3.901,-0.135 v 0.008 c -0.195,1.05 -0.211,2.175 -0.135,3.191 0.093,0.753 0.22,1.515 0.465,2.225 0.068,0.212 0.144,0.407 0.212,0.593 0.076,0.178 0.144,0.355 0.254,0.524 0.017,0.034 0.033,0.077 0.059,0.119 0.059,0.127 0.127,0.254 0.211,0.372 0.009,0.034 0.017,0.068 0.043,0.102 0.431,0.745 1.108,1.422 1.768,1.836 0.051,0.043 0.085,0.068 0.144,0.093 0.28,0.153 0.567,0.322 0.889,0.415 C 19.621,21.913 25.679,8.113 21.488,1.838 21.462,1.812 21.454,1.787 21.428,1.753 21.377,1.669 21.31,1.592 21.251,1.516 21.242,1.491 21.225,1.457 21.2,1.449 21.157,1.372 21.107,1.33 21.064,1.271 21.014,1.212 20.963,1.152 20.92,1.093 17.255,-2.942 11.553,0.687 9.386,4.664 l 0.118,0.051 0.11,0.068 3.453,1.709 h 0.009 V 6.484 c 0.237,-0.263 0.49,-0.499 0.753,-0.677 0.414,-0.296 0.829,-0.499 1.244,-0.593 0.44,-0.084 0.846,-0.084 1.235,0.051 0.203,0.059 0.407,0.161 0.584,0.296 0.263,0.17 0.508,0.457 0.686,0.745 0.067,0.093 0.127,0.203 0.161,0.305 0.025,0.051 0.05,0.084 0.059,0.135 0.025,0.042 0.05,0.093 0.059,0.144 0.051,0.119 0.085,0.245 0.118,0.372 0.119,0.5 0.17,1.05 0.11,1.625 -0.033,0.559 -0.152,1.143 -0.38,1.718 -0.373,1.05 -1.143,2.184 -2.065,2.784 -0.762,0.542 -1.659,0.754 -2.505,0.457 -0.076,-0.033 -0.144,-0.076 -0.22,-0.11 -0.28,-0.144 -0.542,-0.364 -0.77,-0.66 -0.017,-0.042 -0.06,-0.076 -0.068,-0.11 -0.237,-0.347 -0.415,-0.744 -0.525,-1.193 -0.093,-0.491 -0.127,-1.032 -0.076,-1.582 0,-0.017 0.009,-0.077 0.009,-0.111 L 14.802,9.962 11.942,9.014 11.713,8.946 8.235,7.796 8.108,7.762 7.998,7.719 C 6.128,7.119 3.208,6.145 1.329,5.528 L 1.211,5.485 C -3.304,4.007 -14.754,0.226 -19.21,-1.243 v 53.535 h 36.221 c 25.574,0 43.481,-17.467 43.481,-42.432 0,-24.634 -17.907,-41.797 -43.481,-41.797 H -19.21 v 22.46 z" /></g><g
           transform="translate(55.9031,32.1875)"
           id="g64"><path
             id="path66"
             style="fill:#0b2746;fill-opacity:1;fill-rule:nonzero;stroke:none"
             d="M 0,0 -3.786,11.007 -7.573,0 Z M -9.189,19.843 H 1.616 L 14.44,-15.501 H 5.353 L 2.828,-8.18 H -10.4 l -2.526,-7.321 h -9.088 z" /></g><g
           transform="translate(71.8611,34.3584)"
           id="g68"><path
             id="path70"
             style="fill:#0b2746;fill-opacity:1;fill-rule:nonzero;stroke:none"
             d="m 0,0 c 0,10.401 7.726,18.328 18.329,18.328 8.685,0 15.299,-5.453 17.218,-13.127 H 26.356 C 24.943,8.28 22.065,10.148 18.329,10.148 12.472,10.148 8.685,5.907 8.685,0 c 0,-5.907 3.787,-10.148 9.644,-10.148 3.736,0 6.614,1.868 8.027,4.948 h 9.191 C 33.628,-12.875 27.014,-18.328 18.329,-18.328 7.726,-18.328 0,-10.401 0,0" /></g><g
           transform="translate(130.9392,32.1875)"
           id="g72"><path
             id="path74"
             style="fill:#0b2746;fill-opacity:1;fill-rule:nonzero;stroke:none"
             d="M 0,0 -3.787,11.007 -7.573,0 Z M -9.189,19.843 H 1.616 L 14.44,-15.501 H 5.353 L 2.828,-8.18 h -13.229 l -2.525,-7.321 h -9.088 z" /></g><g
           transform="translate(163.3572,24.8663)"
           id="g76"><path
             id="path78"
             style="fill:#0b2746;fill-opacity:1;fill-rule:nonzero;stroke:none"
             d="m 0,0 c 5.604,0 9.492,3.888 9.492,9.492 0,5.655 -3.888,9.492 -9.492,9.492 H -4.595 V 0 Z M -13.179,27.164 H 0 C 10.3,27.164 18.075,19.54 18.075,9.492 18.075,-0.556 10.3,-8.18 0,-8.18 h -13.179 z" /></g><g
           transform="translate(211.3259,43.8506)"
           id="g80"><path
             id="path82"
             style="fill:#0b2746;fill-opacity:1;fill-rule:nonzero;stroke:none"
             d="m 0,0 h -15.753 v -5.251 h 14.339 v -8.18 h -14.339 v -5.553 H 0 v -8.18 H -24.337 V 8.18 H 0 Z" /></g><g
           transform="translate(216.3777,52.0303)"
           id="g84"><path
             id="path86"
             style="fill:#0b2746;fill-opacity:1;fill-rule:nonzero;stroke:none"
             d="M 0,0 H 9.744 L 17.823,-12.118 25.901,0 h 9.745 v -35.344 h -8.583 v 23.327 L 18.228,-25.498 H 17.419 L 8.583,-12.017 V -35.344 H 0 Z" /></g><g
           transform="translate(266.4675,52.0303)"
           id="g88"><path
             id="path90"
             style="fill:#0b2746;fill-opacity:1;fill-rule:nonzero;stroke:none"
             d="M 0,0 6.917,-14.39 13.835,0 h 9.593 L 11.209,-24.033 V -35.344 H 2.625 v 11.209 L -9.644,0 Z" /></g><g
           transform="translate(160.1623,12.074)"
           id="g92"><path
             id="path94"
             style="fill:#e9e9de;fill-opacity:1;fill-rule:nonzero;stroke:none"
             d="M 0,0 C -0.084,-0.044 -0.169,-0.093 -0.253,-0.138 -0.276,-0.151 -0.302,-0.165 -0.325,-0.173 -0.218,-0.111 -0.107,-0.049 0,0" /></g><g
           transform="translate(45.2135,0.1193)"
           id="g96"><path
             id="path98"
             style="fill:#d6e041;fill-opacity:1;fill-rule:nonzero;stroke:none"
             d="m 0,0 c 14.727,1.064 29.465,1.98 44.211,2.74 1.784,0.092 3.568,0.182 5.352,0.269 0.418,0.021 2.025,0.098 0.352,0.018 C 48.32,2.95 49.59,3.011 49.91,3.026 c 1.07,0.051 2.141,0.101 3.211,0.15 3.688,0.17 7.376,0.33 11.064,0.481 7.377,0.301 14.755,0.564 22.134,0.788 29.518,0.897 59.054,1.183 88.583,0.855 16.67,-0.185 33.337,-0.569 49.998,-1.142 2.634,-0.091 5.712,0.375 8.23,1.158 1.312,0.408 3.949,1.284 4.72,2.684 1.942,3.532 -6.613,3.807 -7.925,3.852 -29.752,1.024 -59.524,1.434 -89.293,1.217 C 110.262,12.847 79.906,11.939 49.573,10.462 32.803,9.646 16.043,8.628 -0.704,7.418 -3.107,7.245 -5.983,6.659 -8.186,5.613 -9.104,5.176 -11.212,4.099 -11.079,2.692 -10.942,1.255 -8.735,0.609 -7.688,0.367 -5.163,-0.216 -2.569,-0.186 0,0" /></g></g></g></g></svg>